{"asset":{"version":"2.0","generator":"THREE.GLTFExporter"},"scenes":[{"nodes":[0],"name":"AuxScene"}],"scene":0,"nodes":[{"mesh":0}],"bufferViews":[{"buffer":0,"byteOffset":0,"byteLength":6444,"target":34962,"byteStride":12},{"buffer":0,"byteOffset":6444,"byteLength":6444,"target":34962,"byteStride":12}],"buffers":[{"byteLength":12888,"uri":"data:application/octet-stream;base64,"}],"accessors":[{"bufferView":0,"componentType":5126,"count":537,"max":[17.708805084228516,7.311686992645264,20.622438430786133],"min":[-27.89119529724121,-3.0883140563964844,-27.977561950683594],"type":"VEC3"},{"bufferView":1,"componentType":5126,"count":537,"max":[0.5547001957893372,1,0.5345253348350525],"min":[-0.6304906010627747,0.7092975378036499,-0.5547001957893372],"type":"VEC3"}],"materials":[{"pbrMetallicRoughness":{"baseColorFactor":[0.5019607843137255,0.5019607843137255,0.5019607843137255,1],"metallicFactor":0,"roughnessFactor":1}}],"meshes":[{"primitives":[{"mode":4,"attributes":{"POSITION":0,"NORMAL":1},"material":0}]}]}